<mxfile host="app.diagrams.net" agent="Mozilla/5.0 (Windows NT 10.0; Win64; x64) AppleWebKit/537.36 (KHTML, like Gecko) Chrome/130.0.0.0 Safari/537.36" version="24.7.8">
  <diagram id="C5RBs43oDa-KdzZeNtuy" name="Page-1">
    <mxGraphModel dx="652" dy="526" grid="1" gridSize="10" guides="1" tooltips="1" connect="1" arrows="1" fold="1" page="1" pageScale="1" pageWidth="827" pageHeight="1169" math="0" shadow="0">
      <root>
        <mxCell id="WIyWlLk6GJQsqaUBKTNV-0" />
        <mxCell id="WIyWlLk6GJQsqaUBKTNV-1" parent="WIyWlLk6GJQsqaUBKTNV-0" />
        <mxCell id="jW27clK9n0WpMmJnxyqP-55" value="Customers" style="shape=table;startSize=30;container=1;collapsible=0;childLayout=tableLayout;" vertex="1" parent="WIyWlLk6GJQsqaUBKTNV-1">
          <mxGeometry x="200" y="60" width="350" height="150" as="geometry" />
        </mxCell>
        <mxCell id="jW27clK9n0WpMmJnxyqP-56" value="" style="shape=tableRow;horizontal=0;startSize=0;swimlaneHead=0;swimlaneBody=0;strokeColor=inherit;top=0;left=0;bottom=0;right=0;collapsible=0;dropTarget=0;fillColor=none;points=[[0,0.5],[1,0.5]];portConstraint=eastwest;" vertex="1" parent="jW27clK9n0WpMmJnxyqP-55">
          <mxGeometry y="30" width="350" height="27" as="geometry" />
        </mxCell>
        <mxCell id="jW27clK9n0WpMmJnxyqP-57" value="PK" style="shape=partialRectangle;html=1;whiteSpace=wrap;connectable=0;strokeColor=inherit;overflow=hidden;fillColor=none;top=0;left=0;bottom=0;right=0;pointerEvents=1;" vertex="1" parent="jW27clK9n0WpMmJnxyqP-56">
          <mxGeometry width="39" height="27" as="geometry">
            <mxRectangle width="39" height="27" as="alternateBounds" />
          </mxGeometry>
        </mxCell>
        <mxCell id="jW27clK9n0WpMmJnxyqP-58" value="customer_id (INT AUTO_INCREMENT) not null" style="shape=partialRectangle;html=1;whiteSpace=wrap;connectable=0;strokeColor=inherit;overflow=hidden;fillColor=none;top=0;left=0;bottom=0;right=0;pointerEvents=1;align=left;" vertex="1" parent="jW27clK9n0WpMmJnxyqP-56">
          <mxGeometry x="39" width="311" height="27" as="geometry">
            <mxRectangle width="311" height="27" as="alternateBounds" />
          </mxGeometry>
        </mxCell>
        <mxCell id="jW27clK9n0WpMmJnxyqP-59" value="" style="shape=tableRow;horizontal=0;startSize=0;swimlaneHead=0;swimlaneBody=0;strokeColor=inherit;top=0;left=0;bottom=0;right=0;collapsible=0;dropTarget=0;fillColor=none;points=[[0,0.5],[1,0.5]];portConstraint=eastwest;" vertex="1" parent="jW27clK9n0WpMmJnxyqP-55">
          <mxGeometry y="57" width="350" height="93" as="geometry" />
        </mxCell>
        <mxCell id="jW27clK9n0WpMmJnxyqP-60" value="" style="shape=partialRectangle;html=1;whiteSpace=wrap;connectable=0;strokeColor=inherit;overflow=hidden;fillColor=none;top=0;left=0;bottom=0;right=0;pointerEvents=1;" vertex="1" parent="jW27clK9n0WpMmJnxyqP-59">
          <mxGeometry width="39" height="93" as="geometry">
            <mxRectangle width="39" height="93" as="alternateBounds" />
          </mxGeometry>
        </mxCell>
        <mxCell id="jW27clK9n0WpMmJnxyqP-61" value="&lt;span style=&quot;&quot;&gt;first_name (VARCHAR(20)) NOT NULL&lt;/span&gt;&lt;div&gt;last_name (VARCHAR(20))&amp;nbsp;&lt;br&gt;&lt;div style=&quot;&quot;&gt;email (VARCHAR(50), unique)&lt;/div&gt;&lt;div style=&quot;&quot;&gt;address (TEXT)&lt;/div&gt;&lt;div style=&quot;&quot;&gt;&lt;br&gt;&lt;/div&gt;&lt;/div&gt;&lt;div style=&quot;&quot;&gt;&lt;br&gt;&lt;/div&gt;" style="shape=partialRectangle;html=1;whiteSpace=wrap;connectable=0;strokeColor=inherit;overflow=hidden;fillColor=none;top=0;left=0;bottom=0;right=0;pointerEvents=1;align=left;" vertex="1" parent="jW27clK9n0WpMmJnxyqP-59">
          <mxGeometry x="39" width="311" height="93" as="geometry">
            <mxRectangle width="311" height="93" as="alternateBounds" />
          </mxGeometry>
        </mxCell>
        <mxCell id="jW27clK9n0WpMmJnxyqP-62" value="Books" style="shape=table;startSize=30;container=1;collapsible=0;childLayout=tableLayout;" vertex="1" parent="WIyWlLk6GJQsqaUBKTNV-1">
          <mxGeometry x="200" y="230" width="350" height="138.0000000000001" as="geometry" />
        </mxCell>
        <mxCell id="jW27clK9n0WpMmJnxyqP-63" value="" style="shape=tableRow;horizontal=0;startSize=0;swimlaneHead=0;swimlaneBody=0;strokeColor=inherit;top=0;left=0;bottom=0;right=0;collapsible=0;dropTarget=0;fillColor=none;points=[[0,0.5],[1,0.5]];portConstraint=eastwest;" vertex="1" parent="jW27clK9n0WpMmJnxyqP-62">
          <mxGeometry y="30" width="350" height="30" as="geometry" />
        </mxCell>
        <mxCell id="jW27clK9n0WpMmJnxyqP-64" value="PK" style="shape=partialRectangle;html=1;whiteSpace=wrap;connectable=0;strokeColor=inherit;overflow=hidden;fillColor=none;top=0;left=0;bottom=0;right=0;pointerEvents=1;" vertex="1" parent="jW27clK9n0WpMmJnxyqP-63">
          <mxGeometry width="37" height="30" as="geometry">
            <mxRectangle width="37" height="30" as="alternateBounds" />
          </mxGeometry>
        </mxCell>
        <mxCell id="jW27clK9n0WpMmJnxyqP-65" value="book_id (INT AUTO_INCREMENT)&amp;nbsp;&lt;span style=&quot;background-color: initial;&quot;&gt;not null&lt;/span&gt;" style="shape=partialRectangle;html=1;whiteSpace=wrap;connectable=0;strokeColor=inherit;overflow=hidden;fillColor=none;top=0;left=0;bottom=0;right=0;pointerEvents=1;align=left;" vertex="1" parent="jW27clK9n0WpMmJnxyqP-63">
          <mxGeometry x="37" width="313" height="30" as="geometry">
            <mxRectangle width="313" height="30" as="alternateBounds" />
          </mxGeometry>
        </mxCell>
        <mxCell id="jW27clK9n0WpMmJnxyqP-66" value="" style="shape=tableRow;horizontal=0;startSize=0;swimlaneHead=0;swimlaneBody=0;strokeColor=inherit;top=0;left=0;bottom=0;right=0;collapsible=0;dropTarget=0;fillColor=none;points=[[0,0.5],[1,0.5]];portConstraint=eastwest;" vertex="1" parent="jW27clK9n0WpMmJnxyqP-62">
          <mxGeometry y="60" width="350" height="78" as="geometry" />
        </mxCell>
        <mxCell id="jW27clK9n0WpMmJnxyqP-67" value="&lt;div&gt;&lt;br&gt;&lt;/div&gt;&lt;div&gt;FK&lt;/div&gt;&lt;div&gt;&lt;br&gt;&lt;/div&gt;&lt;div&gt;&lt;br&gt;&lt;/div&gt;&lt;div&gt;&lt;br&gt;&lt;/div&gt;" style="shape=partialRectangle;html=1;whiteSpace=wrap;connectable=0;strokeColor=inherit;overflow=hidden;fillColor=none;top=0;left=0;bottom=0;right=0;pointerEvents=1;" vertex="1" parent="jW27clK9n0WpMmJnxyqP-66">
          <mxGeometry width="37" height="78" as="geometry">
            <mxRectangle width="37" height="78" as="alternateBounds" />
          </mxGeometry>
        </mxCell>
        <mxCell id="jW27clK9n0WpMmJnxyqP-68" value="&lt;span style=&quot;&quot;&gt;title (VARCHAR(50))&amp;nbsp;&lt;/span&gt;&lt;div style=&quot;&quot;&gt;author_id&amp;nbsp;&amp;nbsp;&lt;/div&gt;&lt;div style=&quot;&quot;&gt;genre (VARCHAR(50))&lt;/div&gt;&lt;div style=&quot;&quot;&gt;price (DECIMAL(10, 2))&lt;/div&gt;&lt;div style=&quot;&quot;&gt;stock_quantity (INT)&lt;/div&gt;&lt;div style=&quot;&quot;&gt;&lt;br&gt;&lt;/div&gt;&lt;div style=&quot;&quot;&gt;&lt;br&gt;&lt;/div&gt;" style="shape=partialRectangle;html=1;whiteSpace=wrap;connectable=0;strokeColor=inherit;overflow=hidden;fillColor=none;top=0;left=0;bottom=0;right=0;pointerEvents=1;align=left;" vertex="1" parent="jW27clK9n0WpMmJnxyqP-66">
          <mxGeometry x="37" width="313" height="78" as="geometry">
            <mxRectangle width="313" height="78" as="alternateBounds" />
          </mxGeometry>
        </mxCell>
        <mxCell id="jW27clK9n0WpMmJnxyqP-69" value="Authors" style="shape=table;startSize=30;container=1;collapsible=0;childLayout=tableLayout;" vertex="1" parent="WIyWlLk6GJQsqaUBKTNV-1">
          <mxGeometry x="200" y="390" width="350" height="120" as="geometry" />
        </mxCell>
        <mxCell id="jW27clK9n0WpMmJnxyqP-70" value="" style="shape=tableRow;horizontal=0;startSize=0;swimlaneHead=0;swimlaneBody=0;strokeColor=inherit;top=0;left=0;bottom=0;right=0;collapsible=0;dropTarget=0;fillColor=none;points=[[0,0.5],[1,0.5]];portConstraint=eastwest;" vertex="1" parent="jW27clK9n0WpMmJnxyqP-69">
          <mxGeometry y="30" width="350" height="23" as="geometry" />
        </mxCell>
        <mxCell id="jW27clK9n0WpMmJnxyqP-71" value="PK" style="shape=partialRectangle;html=1;whiteSpace=wrap;connectable=0;strokeColor=inherit;overflow=hidden;fillColor=none;top=0;left=0;bottom=0;right=0;pointerEvents=1;" vertex="1" parent="jW27clK9n0WpMmJnxyqP-70">
          <mxGeometry width="34" height="23" as="geometry">
            <mxRectangle width="34" height="23" as="alternateBounds" />
          </mxGeometry>
        </mxCell>
        <mxCell id="jW27clK9n0WpMmJnxyqP-72" value="author_id (INT AUTO_INCREMENT not null" style="shape=partialRectangle;html=1;whiteSpace=wrap;connectable=0;strokeColor=inherit;overflow=hidden;fillColor=none;top=0;left=0;bottom=0;right=0;pointerEvents=1;align=left;" vertex="1" parent="jW27clK9n0WpMmJnxyqP-70">
          <mxGeometry x="34" width="316" height="23" as="geometry">
            <mxRectangle width="316" height="23" as="alternateBounds" />
          </mxGeometry>
        </mxCell>
        <mxCell id="jW27clK9n0WpMmJnxyqP-73" value="" style="shape=tableRow;horizontal=0;startSize=0;swimlaneHead=0;swimlaneBody=0;strokeColor=inherit;top=0;left=0;bottom=0;right=0;collapsible=0;dropTarget=0;fillColor=none;points=[[0,0.5],[1,0.5]];portConstraint=eastwest;" vertex="1" parent="jW27clK9n0WpMmJnxyqP-69">
          <mxGeometry y="53" width="350" height="67" as="geometry" />
        </mxCell>
        <mxCell id="jW27clK9n0WpMmJnxyqP-74" value="" style="shape=partialRectangle;html=1;whiteSpace=wrap;connectable=0;strokeColor=inherit;overflow=hidden;fillColor=none;top=0;left=0;bottom=0;right=0;pointerEvents=1;" vertex="1" parent="jW27clK9n0WpMmJnxyqP-73">
          <mxGeometry width="34" height="67" as="geometry">
            <mxRectangle width="34" height="67" as="alternateBounds" />
          </mxGeometry>
        </mxCell>
        <mxCell id="jW27clK9n0WpMmJnxyqP-75" value="first_name (VARCHAR(50))&lt;div&gt;last_name (VARCHAR(50))&lt;/div&gt;&lt;div&gt;&lt;br&gt;&lt;/div&gt;" style="shape=partialRectangle;html=1;whiteSpace=wrap;connectable=0;strokeColor=inherit;overflow=hidden;fillColor=none;top=0;left=0;bottom=0;right=0;pointerEvents=1;align=left;" vertex="1" parent="jW27clK9n0WpMmJnxyqP-73">
          <mxGeometry x="34" width="316" height="67" as="geometry">
            <mxRectangle width="316" height="67" as="alternateBounds" />
          </mxGeometry>
        </mxCell>
        <mxCell id="jW27clK9n0WpMmJnxyqP-76" value="Transactions" style="shape=table;startSize=30;container=1;collapsible=0;childLayout=tableLayout;" vertex="1" parent="WIyWlLk6GJQsqaUBKTNV-1">
          <mxGeometry x="200" y="525" width="350" height="145" as="geometry" />
        </mxCell>
        <mxCell id="jW27clK9n0WpMmJnxyqP-77" value="" style="shape=tableRow;horizontal=0;startSize=0;swimlaneHead=0;swimlaneBody=0;strokeColor=inherit;top=0;left=0;bottom=0;right=0;collapsible=0;dropTarget=0;fillColor=none;points=[[0,0.5],[1,0.5]];portConstraint=eastwest;" vertex="1" parent="jW27clK9n0WpMmJnxyqP-76">
          <mxGeometry y="30" width="350" height="27" as="geometry" />
        </mxCell>
        <mxCell id="jW27clK9n0WpMmJnxyqP-78" value="PK" style="shape=partialRectangle;html=1;whiteSpace=wrap;connectable=0;strokeColor=inherit;overflow=hidden;fillColor=none;top=0;left=0;bottom=0;right=0;pointerEvents=1;" vertex="1" parent="jW27clK9n0WpMmJnxyqP-77">
          <mxGeometry width="33" height="27" as="geometry">
            <mxRectangle width="33" height="27" as="alternateBounds" />
          </mxGeometry>
        </mxCell>
        <mxCell id="jW27clK9n0WpMmJnxyqP-79" value="transaction_id (INT AUTO_INCREMENT)" style="shape=partialRectangle;html=1;whiteSpace=wrap;connectable=0;strokeColor=inherit;overflow=hidden;fillColor=none;top=0;left=0;bottom=0;right=0;pointerEvents=1;align=left;" vertex="1" parent="jW27clK9n0WpMmJnxyqP-77">
          <mxGeometry x="33" width="317" height="27" as="geometry">
            <mxRectangle width="317" height="27" as="alternateBounds" />
          </mxGeometry>
        </mxCell>
        <mxCell id="jW27clK9n0WpMmJnxyqP-80" value="" style="shape=tableRow;horizontal=0;startSize=0;swimlaneHead=0;swimlaneBody=0;strokeColor=inherit;top=0;left=0;bottom=0;right=0;collapsible=0;dropTarget=0;fillColor=none;points=[[0,0.5],[1,0.5]];portConstraint=eastwest;" vertex="1" parent="jW27clK9n0WpMmJnxyqP-76">
          <mxGeometry y="57" width="350" height="88" as="geometry" />
        </mxCell>
        <mxCell id="jW27clK9n0WpMmJnxyqP-81" value="FK&lt;div&gt;FK&lt;/div&gt;&lt;div&gt;&lt;br&gt;&lt;/div&gt;&lt;div&gt;&lt;br&gt;&lt;/div&gt;&lt;div&gt;&lt;br&gt;&lt;/div&gt;&lt;div&gt;&lt;br&gt;&lt;/div&gt;" style="shape=partialRectangle;html=1;whiteSpace=wrap;connectable=0;strokeColor=inherit;overflow=hidden;fillColor=none;top=0;left=0;bottom=0;right=0;pointerEvents=1;" vertex="1" parent="jW27clK9n0WpMmJnxyqP-80">
          <mxGeometry width="33" height="88" as="geometry">
            <mxRectangle width="33" height="88" as="alternateBounds" />
          </mxGeometry>
        </mxCell>
        <mxCell id="jW27clK9n0WpMmJnxyqP-82" value="customer_id&lt;div&gt;book_id&lt;/div&gt;&lt;div&gt;quantity (INT)&lt;br&gt;&lt;div&gt;transaction_date (DATETIME)&lt;/div&gt;&lt;div&gt;total_amount (DECIMAL(10, 2)&lt;/div&gt;&lt;div&gt;&lt;br&gt;&lt;/div&gt;&lt;/div&gt;" style="shape=partialRectangle;html=1;whiteSpace=wrap;connectable=0;strokeColor=inherit;overflow=hidden;fillColor=none;top=0;left=0;bottom=0;right=0;pointerEvents=1;align=left;" vertex="1" parent="jW27clK9n0WpMmJnxyqP-80">
          <mxGeometry x="33" width="317" height="88" as="geometry">
            <mxRectangle width="317" height="88" as="alternateBounds" />
          </mxGeometry>
        </mxCell>
        <mxCell id="jW27clK9n0WpMmJnxyqP-101" value="" style="edgeStyle=orthogonalEdgeStyle;rounded=0;orthogonalLoop=1;jettySize=auto;html=1;exitX=0;exitY=0.5;exitDx=0;exitDy=0;" edge="1" parent="WIyWlLk6GJQsqaUBKTNV-1" source="jW27clK9n0WpMmJnxyqP-70">
          <mxGeometry relative="1" as="geometry">
            <mxPoint x="210" y="460" as="sourcePoint" />
            <mxPoint x="198" y="315" as="targetPoint" />
            <Array as="points">
              <mxPoint x="140" y="432" />
              <mxPoint x="140" y="315" />
            </Array>
          </mxGeometry>
        </mxCell>
        <mxCell id="jW27clK9n0WpMmJnxyqP-102" value="" style="edgeStyle=orthogonalEdgeStyle;rounded=0;orthogonalLoop=1;jettySize=auto;html=1;entryX=0;entryY=0.282;entryDx=0;entryDy=0;entryPerimeter=0;exitX=0;exitY=0.5;exitDx=0;exitDy=0;" edge="1" parent="WIyWlLk6GJQsqaUBKTNV-1" source="jW27clK9n0WpMmJnxyqP-63" target="jW27clK9n0WpMmJnxyqP-80">
          <mxGeometry relative="1" as="geometry">
            <mxPoint x="220" y="470" as="sourcePoint" />
            <mxPoint x="90" y="615" as="targetPoint" />
          </mxGeometry>
        </mxCell>
        <mxCell id="jW27clK9n0WpMmJnxyqP-103" value="" style="edgeStyle=orthogonalEdgeStyle;rounded=0;orthogonalLoop=1;jettySize=auto;html=1;exitX=0;exitY=0.5;exitDx=0;exitDy=0;" edge="1" parent="WIyWlLk6GJQsqaUBKTNV-1" source="jW27clK9n0WpMmJnxyqP-56">
          <mxGeometry relative="1" as="geometry">
            <mxPoint x="130" y="300" as="sourcePoint" />
            <mxPoint x="200" y="590" as="targetPoint" />
            <Array as="points">
              <mxPoint x="160" y="104" />
              <mxPoint x="160" y="590" />
            </Array>
          </mxGeometry>
        </mxCell>
      </root>
    </mxGraphModel>
  </diagram>
</mxfile>
